<?xml version="1.0" encoding="utf-8"?>
<svg xml:space="preserve" viewBox="0 0 100 100" y="0" x="0" xmlns="http://www.w3.org/2000/svg" id="圖層_1" version="1.1" style="height: 100%; width: 100%; background: none; shape-rendering: auto;" width="128px" height="128px"><g class="ldl-scale" style="transform-origin: 50% 50%; transform: rotate(0deg) scale(-0.8, 0.8);"><g class="ldl-ani" style="transform-origin: 50px 50px; transform: matrix(0, 0, 0, 0.05, 0, 0); opacity: 0; animation: 1.11111s linear 0s 1 normal forwards running power-on-20d8fbe9-9535-42dd-82f0-08fec8bfb93e;"><g class="ldl-layer"><g class="ldl-ani" style="transform-origin: 50px 50px;"><path fill="#d1d1d1" d="M60.342 92.5c-1.063 0-2.127-.092-3.163-.273a15.319 15.319 0 0 1-.212-.041c-9.129-1.923-16.185-10.705-18.874-23.489l-.069-.334h-.953c-.072 0-.144-.002-.216-.005-7.915-.103-15.72-5.696-21.471-15.38C8.924 42.097 5.833 24.601 8.9 16.269c.924-2.509 2.98-4.007 5.5-4.007 1.827 0 3.444.779 5.316 1.682 2.482 1.196 5.57 2.686 9.692 2.686.812 0 1.647-.059 2.481-.175 5.406-.753 8.303-3.482 10.631-5.675 1.712-1.613 3.482-3.279 6.032-3.279 1.071 0 3.112.336 4.75 2.585 2.818 3.87 4.916 10.883 5.646 18.837.063.292.096.594.096.904v2.813c2.066 1.946 4.565 3.879 8.581 4.651 1.007.194 1.999.292 2.951.292 3.222 0 5.677-1.117 7.843-2.103 1.755-.798 3.57-1.623 5.668-1.623.491 0 .979.046 1.453.137 2.784.535 4.899 2.513 5.803 5.424 2.61 8.407-.222 26.447-7.92 38.005C77.04 87.004 68.628 92.501 60.342 92.5c.001 0 .002 0 0 0z" style="fill: rgb(221, 29, 33);"></path></g></g><g class="ldl-layer"><g class="ldl-ani" style="transform-origin: 50px 50px;"><path fill="#454545" d="M86.919 41.317c-.538-1.733-1.644-2.288-2.477-2.448-1.348-.26-2.74.374-4.502 1.174-3.066 1.395-7.265 3.305-13.413 2.122-6.108-1.175-9.516-4.532-12.005-6.983-1.518-1.495-2.615-2.575-4.002-2.842-.855-.165-2.116-.065-3.259 1.345-5.103 6.294-7.629 23.173-5.198 34.732 2.325 11.05 8.127 18.577 15.52 20.135l.032.006.031.006c7.444 1.298 15.626-3.538 21.885-12.935 6.93-10.405 9.662-26.988 7.388-34.312zm-31.122 8.835c3.692 1.657 4.723 7.372 4.723 7.372s-4.955 3.031-8.646 1.374c-3.691-1.657-4.722-7.372-4.722-7.372s4.955-3.031 8.645-1.374zm3.537 28.445c-6.572-1.265-10.067-11.81-10.067-11.81s4.78 3.874 11.351 5.139c6.573 1.265 12.449-.559 12.449-.559s-7.161 8.495-13.733 7.23zm14.24-15.523c-4.042.168-7.519-4.485-7.519-4.485s3.079-4.925 7.121-5.093c4.042-.168 7.519 4.484 7.519 4.484s-3.079 4.926-7.121 5.094z" style="fill: rgb(251, 206, 7);"></path></g></g><g class="ldl-layer"><g class="ldl-ani" style="transform-origin: 50px 50px;"><path fill="#454545" d="M49.515 13.253c-2.677-3.675-5.132 6.418-17.304 8.114-12.172 1.695-17.944-7.252-19.515-2.985-2.524 6.855.23 23.033 6.144 32.993 5.502 9.265 12.534 13.679 18.811 13.229-.551-3.88-.679-8.243-.375-12.67-.322.032-.645.068-.972.113-6.629.923-11.602 4.546-11.602 4.546s4.036-10.351 10.664-11.274c.893-.125 1.787-.067 2.666.118.374-2.252.983-5.188 1.937-8.102-2.763-1.843-4.144-5.705-4.144-5.705s4.391-3.802 8.304-2.774c.082.021.161.048.241.073 1.338-1.381 3.078-1.975 4.86-1.633 2.02.39 3.481 1.828 5.172 3.494l.022.022c-.566-7.322-2.43-14.155-4.909-17.559zM27.316 40.128c-3.483 2.059-8.745-.398-8.745-.398s.385-5.795 3.868-7.853c3.483-2.059 8.746.399 8.746.399s-.386 5.794-3.869 7.852z" style="fill: rgb(251, 206, 7);"></path></g></g><metadata xmlns:d="https://loading.io/stock/"><d:name>theatre</d:name><d:tags>drama,movie,play,entertainment,theatre,map</d:tags><d:license>free</d:license><d:slug>h3pyn9</d:slug></metadata></g></g><style id="power-on-20d8fbe9-9535-42dd-82f0-08fec8bfb93e" data-anikit="">@keyframes power-on-20d8fbe9-9535-42dd-82f0-08fec8bfb93e {
  0%, 20%, 100% {
    animation-timing-function: cubic-bezier(0,0.5,0.5,1);
  }
  0% { transform: scale(0,0); opacity: 0}
  1% { transform: scale(0.05,0.05); opacity: 1 }
  100% { transform: scale(1,1); opacity: 1 }
  20% { transform: scale(1,0.1); }
}</style><!-- [ldio] generated by https://loading.io/ --></svg>