<?xml version="1.0" encoding="utf-8"?>
<svg xml:space="preserve" viewBox="0 0 100 100" y="0" x="0" xmlns="http://www.w3.org/2000/svg" id="圖層_1" version="1.1" style="height: 100%; width: 100%; background: none; shape-rendering: auto;" width="128px" height="128px"><g class="ldl-scale" style="transform-origin: 50% 50%; transform: rotate(0deg) scale(0.8, 0.8);"><g class="ldl-ani"><g class="ldl-layer"><g class="ldl-ani" style="transform-origin: 50px 50px; transform: matrix(1, 0, 0, 1, 0, 199); opacity: 0.05; animation: 1.11111s linear 0.509259s 1 normal forwards running slide-btt-in-e097daff-36ee-46a5-8865-29f6ead80613;"><path fill="#e15b64" d="M12.5 38.5c0 1.9.2 3.8.5 5.7l26.9-26.9c-11.1-4.5-27.4 2.8-27.4 21.2z" style="fill: rgb(225, 91, 100);"></path></g></g><g class="ldl-layer"><g class="ldl-ani" style="transform-origin: 50px 50px; transform: matrix(1, 0, 0, 1, 0, 199); opacity: 0.05; animation: 1.11111s linear 0.462963s 1 normal forwards running slide-btt-in-e097daff-36ee-46a5-8865-29f6ead80613;"><path fill="#f47e60" d="M39.9 17.3L13 44.2c.8 4.4 2.5 8.4 4.7 12.2l30.7-30.7c-1.7-4.2-4.8-7-8.5-8.4z" style="fill: rgb(244, 126, 96);"></path></g></g><g class="ldl-layer"><g class="ldl-ani" style="transform-origin: 50px 50px; transform: matrix(1, 0, 0, 1, 0, 199); opacity: 0.05; animation: 1.11111s linear 0.416667s 1 normal forwards running slide-btt-in-e097daff-36ee-46a5-8865-29f6ead80613;"><path fill="#f8b26a" d="M50 33.6c0-3.1-.6-5.7-1.5-8L17.7 56.4c2.1 3.5 4.6 6.7 7.3 9.6l48.7-48.7C63.1 13.3 50 18.6 50 33.6z" style="fill: rgb(248, 178, 106);"></path></g></g><g class="ldl-layer"><g class="ldl-ani" style="transform-origin: 50px 50px; transform: matrix(1, 0, 0, 1, 0, 199); opacity: 0.05; animation: 1.11111s linear 0.37037s 1 normal forwards running slide-btt-in-e097daff-36ee-46a5-8865-29f6ead80613;"><path fill="#abbd81" d="M73.8 17.2L25.1 65.9c2.9 3 5.9 5.7 8.9 8l49.4-49.4c-2.5-3.5-5.9-5.9-9.6-7.3z" style="fill: rgb(171, 189, 129);"></path></g></g><g class="ldl-layer"><g class="ldl-ani" style="transform-origin: 50px 50px; transform: matrix(1, 0, 0, 1, 0, 199); opacity: 0.05; animation: 1.11111s linear 0.324074s 1 normal forwards running slide-btt-in-e097daff-36ee-46a5-8865-29f6ead80613;"><path fill="#a0c8d7" d="M34 73.9c3.7 2.9 7.2 5.2 10.1 6.8l43.4-43.4c-.2-5.2-1.8-9.5-4.1-12.8L34 73.9z" style="fill: rgb(160, 200, 215);"></path></g></g><g class="ldl-layer"><g class="ldl-ani" style="transform-origin: 50px 50px; transform: matrix(1, 0, 0, 1, 0, 199); opacity: 0.05; animation: 1.11111s linear 0.277778s 1 normal forwards running slide-btt-in-e097daff-36ee-46a5-8865-29f6ead80613;"><path fill="#ac749c" d="M50 84s37.5-17.7 37.5-45.5v-1.2L44 80.8c3.6 2.1 6 3.2 6 3.2z" style="fill: rgb(172, 116, 156);"></path></g></g><g class="ldl-layer"><g class="ldl-ani" style="transform-origin: 50px 50px; transform: matrix(1, 0, 0, 1, 0, 199); opacity: 0.05; animation: 1.11111s linear 0.231481s 1 normal forwards running slide-btt-in-e097daff-36ee-46a5-8865-29f6ead80613;"><path fill="#f5e6c8" d="M51.6 42.4l-6.2-.4c-4.8-.3-8.6-4.2-8.9-9l-.5-7.3c0-.4-.4-.8-.8-.8H35c-.4 0-.8.3-.8.8l-.4 7.2c-.3 4.8-4.1 8.7-8.9 9l-6.2.4c-.4 0-.7.3-.8.7-.1.5.3.9.8 1l6.3.4c4.8.3 8.6 4.2 8.9 9l.4 7.2c0 .4.4.8.8.8h.2c.4 0 .8-.3.8-.8l.4-7.2c.3-4.8 4.1-8.7 8.9-9l6.3-.4c.5 0 .9-.5.8-1-.2-.3-.5-.6-.9-.6z" style="fill: rgb(245, 230, 200);"></path></g></g><g class="ldl-layer"><g class="ldl-ani" style="transform-origin: 50px 50px; transform: matrix(1, 0, 0, 1, 0, 199); opacity: 0.05; animation: 1.11111s linear 0.185185s 1 normal forwards running slide-btt-in-e097daff-36ee-46a5-8865-29f6ead80613;"><path fill="#f5e6c8" d="M32.3 76.6l-3.7-.3c-2.9-.2-5.2-2.5-5.4-5.4l-.3-4.3c0-.3-.2-.5-.5-.5h-.1c-.3 0-.5.2-.5.5l-.3 4.3c-.2 2.9-2.5 5.2-5.4 5.4l-3.7.3c-.2 0-.4.2-.5.4-.1.3.2.6.5.6l3.8.3c2.9.2 5.2 2.5 5.4 5.4l.3 4.3c0 .3.2.5.5.5h.1c.3 0 .5-.2.5-.5l.3-4.3c.2-2.9 2.5-5.2 5.4-5.4l3.8-.3c.3 0 .5-.3.5-.6-.3-.2-.5-.4-.7-.4z" style="fill: rgb(245, 230, 200);"></path></g></g><g class="ldl-layer"><g class="ldl-ani" style="transform-origin: 50px 50px; transform: matrix(1, 0, 0, 1, 0, 199); opacity: 0.05; animation: 1.11111s linear 0.138889s 1 normal forwards running slide-btt-in-e097daff-36ee-46a5-8865-29f6ead80613;"><path fill="#f5e6c8" d="M68.5 69l-2.3-.2c-1.8-.1-3.2-1.6-3.4-3.4l-.2-2.7c0-.2-.1-.3-.3-.3h-.1c-.2 0-.3.1-.3.3l-.2 2.7c-.1 1.8-1.5 3.3-3.4 3.4l-2.2.2c-.1 0-.3.1-.3.3 0 .2.1.4.3.4l2.4.2c1.8.1 3.2 1.6 3.4 3.4l.2 2.7c0 .2.1.3.3.3h.1c.2 0 .3-.1.3-.3l.2-2.7c.1-1.8 1.5-3.3 3.4-3.4l2.4-.2c.2 0 .3-.2.3-.4-.3-.2-.4-.3-.6-.3z" style="fill: rgb(245, 230, 200);"></path></g></g><g class="ldl-layer"><g class="ldl-ani" style="transform-origin: 50px 50px; transform: matrix(1, 0, 0, 1, 0, 199); opacity: 0.05; animation: 1.11111s linear 0.0925926s 1 normal forwards running slide-btt-in-e097daff-36ee-46a5-8865-29f6ead80613;"><path fill="#f5e6c8" d="M84.9 79l-3.5-.2c-2.7-.2-4.8-2.3-5-5l-.2-4c0-.2-.2-.4-.5-.4h-.1c-.2 0-.5.2-.5.4l-.2 4c-.2 2.7-2.3 4.8-5 5l-3.4.2c-.2 0-.4.2-.5.4 0 .3.2.5.4.5l3.5.2c2.7.2 4.8 2.3 5 5l.2 4c0 .2.2.4.5.4h.1c.2 0 .5-.2.5-.4l.2-4c.2-2.7 2.3-4.8 5-5l3.5-.2c.3 0 .5-.3.4-.5 0-.2-.2-.4-.4-.4z" style="fill: rgb(245, 230, 200);"></path></g></g><g class="ldl-layer"><g class="ldl-ani" style="transform-origin: 50px 50px; transform: matrix(1, 0, 0, 1, 0, 199); opacity: 0.05; animation: 1.11111s linear 0.0462963s 1 normal forwards running slide-btt-in-e097daff-36ee-46a5-8865-29f6ead80613;"><path fill="#f5e6c8" d="M21.4 14.3l-1.4-.1c-1.1-.1-1.9-.9-2-2l-.1-1.6c0-.1-.1-.2-.2-.2s-.2.1-.2.2l-.1 1.6c-.1 1.1-.9 1.9-2 2l-1.4.1c-.1 0-.2.1-.2.2s.1.2.2.2l1.4.1c1.1.1 1.9.9 2 2l.1 1.6c0 .1.1.2.2.2s.2-.1.2-.2l.1-1.6c.1-1.1.9-1.9 2-2l1.4-.1c.1 0 .2-.1.2-.2 0-.2-.1-.2-.2-.2z" style="fill: rgb(245, 230, 200);"></path></g></g><g class="ldl-layer"><g class="ldl-ani" style="transform-origin: 50px 50px; transform: matrix(1, 0, 0, 1, 0, 199); opacity: 0.05; animation: 1.11111s linear 0s 1 normal forwards running slide-btt-in-e097daff-36ee-46a5-8865-29f6ead80613;"><path fill="#f5e6c8" d="M87.8 19.3l-2.3-.2c-1.8-.1-3.2-1.6-3.4-3.4l-.2-2.7c0-.2-.1-.3-.3-.3h-.1c-.2 0-.3.1-.3.3l-.2 2.7c-.1 1.8-1.5 3.3-3.4 3.4l-2.3.2c-.1 0-.3.1-.3.3 0 .2.1.4.3.4l2.4.2c1.8.1 3.2 1.6 3.4 3.4l.2 2.7c0 .2.1.3.3.3h.1c.2 0 .3-.1.3-.3l.2-2.7c.1-1.8 1.5-3.3 3.4-3.4L88 20c.2 0 .3-.2.3-.4-.2-.2-.3-.3-.5-.3z" style="fill: rgb(245, 230, 200);"></path></g></g><metadata xmlns:d="https://loading.io/stock/">
<d:name>heart</d:name>
<d:tags>heart,love,lgbt,gay,lesbian,homosexual,affection</d:tags>
<d:license>by</d:license>
<d:slug>5yqe51</d:slug>
</metadata></g></g><style id="slide-btt-in-e097daff-36ee-46a5-8865-29f6ead80613" data-anikit="">@keyframes slide-btt-in-e097daff-36ee-46a5-8865-29f6ead80613
{
  0% {
    animation-timing-function: cubic-bezier(0.1006,0.3357,-0.2396,0.6703);
    transform: translate(0px,199px) rotate(0deg) scale(1,1) skewX(0deg) skewY(0deg);
    opacity: 0.05;
  }
  2% {
    animation-timing-function: cubic-bezier(0.2668,0.6542,0.5372,0.8035);
    transform: translate(0px,124.8px) rotate(0deg) scale(1,1) skewX(0deg) skewY(0deg);
    opacity: 1;
  }
  100% {
    transform: translate(0px,0px) rotate(0deg) scale(1,1) skewX(0deg) skewY(0deg);
    opacity: 1;
  }
}</style><!-- [ldio] generated by https://loading.io/ --></svg>