<?xml version="1.0" encoding="utf-8"?>
<svg viewBox="0 0 100 100" xmlns="http://www.w3.org/2000/svg" style="height: 100%; width: 100%; background: rgb(255, 255, 255); shape-rendering: auto;" width="128px" height="128px"><g class="ldl-scale" style="transform-origin: 50% 50%; transform: rotate(0deg) scale(0.8, 0.8);"><g class="ldl-ani"><g class="ldl-layer"><g class="ldl-ani" style="transform-origin: 50px 50px; transform: matrix(1, 0, 0, 1, -14.925, 0); opacity: 0.05; animation: 1.11111s linear 0.277778s 1 normal forwards running float-ltr-in-140f7732-4f3f-4ecb-b85d-82350d110825;"><circle fill="none" r="15" cy="41.829" cx="50"></circle></g></g><g class="ldl-layer"><g class="ldl-ani" style="transform-origin: 50px 50px; transform: matrix(1, 0, 0, 1, -14.925, 0); opacity: 0.05; animation: 1.11111s linear 0s 1 normal forwards running float-ltr-in-140f7732-4f3f-4ecb-b85d-82350d110825;"><path fill="#e15b64" d="M50 12.037c-16.453 0-29.792 13.338-29.792 29.792 0 13.064 8.412 24.156 20.112 28.175l6.104 15.523c1.277 3.248 5.874 3.248 7.152 0l6.104-15.523c11.7-4.019 20.112-15.111 20.112-28.175 0-16.454-13.339-29.792-29.792-29.792zm0 44.792c-8.284 0-15-6.716-15-15 0-8.284 6.716-15 15-15 8.284 0 15 6.716 15 15 0 8.284-6.716 15-15 15z" style="fill: rgb(225, 91, 100);"></path></g></g><metadata xmlns:d="https://loading.io/stock/">
<d:name>map</d:name>
<d:tags>map,marker,location,position,gps,latitude,longitude,place,pin</d:tags>
<d:license>by</d:license>
<d:slug>37qkz6</d:slug>
</metadata></g></g><style id="float-ltr-in-140f7732-4f3f-4ecb-b85d-82350d110825" data-anikit="">@keyframes float-ltr-in-140f7732-4f3f-4ecb-b85d-82350d110825
{
  0% {
    animation-timing-function: cubic-bezier(0.2242,0.7499,0.3142,0.8148);
    transform: translate(-14.925px,0px) rotate(0deg) scale(1,1) skewX(0deg) skewY(0deg);
    opacity: 0.05;
  }
  100% {
    transform: translate(0px,0px) rotate(0deg) scale(1,1) skewX(0deg) skewY(0deg);
    opacity: 1;
  }
}</style><!-- [ldio] generated by https://loading.io/ --></svg>