<?xml version="1.0" encoding="utf-8"?>
<svg xml:space="preserve" viewBox="0 0 100 100" y="0" x="0" xmlns="http://www.w3.org/2000/svg" id="圖層_1" version="1.1" style="height: 100%; width: 100%; background: none; shape-rendering: auto;" width="128px" height="128px"><g class="ldl-scale" style="transform-origin: 50% 50%; transform: rotate(0deg) scale(0.8, 0.8);"><g class="ldl-ani" style="transform-origin: 50px 50px; transform: matrix(1, 0, 0, 1, 0, -199); opacity: 0.05; animation: 1.11111s linear 0s 1 normal forwards running slide-ttb-in-503ba384-b7c2-4c52-bab0-f48a17b08119;"><g class="ldl-layer"><g class="ldl-ani" style="transform-origin: 50px 50px;"><path d="M51.8 50V22.8l9.8-9.7-2.6-2.6-7.2 7.2V7.5h-3.6v10.2L41 10.5l-2.6 2.6 9.8 9.7v54.4l-9.8 9.7 2.6 2.6 7.2-7.2v10.2h3.6V82.3l7.2 7.2 2.6-2.6-9.8-9.7z" fill="#a0c8d7" style="fill: rgb(160, 200, 215);"></path></g></g><g class="ldl-layer"><g class="ldl-ani" style="transform-origin: 50px 50px;"><path d="M88.7 61.9l-.9-3.5L74.4 62 50.9 48.4 27.4 34.8l-3.6-13.3-3.5.9 2.6 9.9-8.8-5.1-1.8 3.1 8.8 5.1-9.8 2.7.9 3.5L25.6 38l23.5 13.6 23.5 13.6 3.6 13.3 3.5-.9-2.6-9.9 8.8 5.1 1.8-3.1-8.8-5.1z" fill="#a0c8d7" style="fill: rgb(160, 200, 215);"></path></g></g><g class="ldl-layer"><g class="ldl-ani" style="transform-origin: 50px 50px;"><path d="M88.7 38.1l-9.8-2.7 8.8-5.1-1.8-3.1-8.8 5.1 2.6-9.9-3.5-.9-3.6 13.3-23.5 13.6L25.6 62l-13.4-3.6-.9 3.5 9.8 2.7-8.8 5.1 1.8 3.1 8.8-5.1-2.6 9.9 3.5.9 3.6-13.3 23.5-13.6L74.4 38l13.4 3.6z" fill="#a0c8d7" style="fill: rgb(160, 200, 215);"></path></g></g><metadata xmlns:d="https://loading.io/stock/"><d:name>snow</d:name><d:tags>ice,cold,cool,winter,freeze,blizzard,snow,weather</d:tags><d:license>by</d:license><d:slug>mouo2p</d:slug></metadata></g></g><style id="slide-ttb-in-503ba384-b7c2-4c52-bab0-f48a17b08119" data-anikit="">@keyframes slide-ttb-in-503ba384-b7c2-4c52-bab0-f48a17b08119
{
  0% {
    animation-timing-function: cubic-bezier(0.1006,0.3357,-0.2396,0.6703);
    transform: translate(0px,-199px) rotate(0deg) scale(1,1) skewX(0deg) skewY(0deg);
    opacity: 0.05;
  }
  2% {
    animation-timing-function: cubic-bezier(0.2668,0.6542,0.5372,0.8035);
    transform: translate(0px,-124.8px) rotate(0deg) scale(1,1) skewX(0deg) skewY(0deg);
    opacity: 1;
  }
  100% {
    transform: translate(0px,0px) rotate(0deg) scale(1,1) skewX(0deg) skewY(0deg);
    opacity: 1;
  }
}</style><!-- [ldio] generated by https://loading.io/ --></svg>