<?xml version="1.0" encoding="utf-8"?>
<svg xml:space="preserve" viewBox="0 0 100 100" y="0" x="0" xmlns="http://www.w3.org/2000/svg" id="圖層_1" version="1.1" style="height: 100%; width: 100%; background: none; shape-rendering: auto;" width="128px" height="128px"><g class="ldl-scale" style="transform-origin: 50% 50%; transform: rotate(0deg) scale(0.8, 0.8);"><g class="ldl-ani" style="transform-origin: 50px 50px; transform: matrix(1, 0, 0, 1, -199, 0); opacity: 0.05; animation: 1.11111s linear 0s 1 normal forwards running slide-ltr-in-96804a97-a191-43f2-b0e1-9c5ca10e7d4f;"><g class="ldl-layer"><g class="ldl-ani" style="transform-origin: 50px 50px;"><path d="M50 10l4.3 7.6 6.1-6.2 2.1 8.4 7.5-4.4-.1 8.6 8.4-2.3-2.3 8.4 8.6-.1-4.4 7.5 8.4 2.1-6.2 6.1L90 50l-7.6 4.3 6.2 6.1-8.4 2.1 4.4 7.5-8.6-.1 2.3 8.4-8.4-2.3.1 8.6-7.5-4.4-2.1 8.4-6.1-6.2L50 90l-4.3-7.6-6.1 6.2-2.1-8.4-7.5 4.4.1-8.6-8.4 2.3 2.3-8.4-8.6.1 4.4-7.5-8.4-2.1 6.2-6.1L10 50l7.6-4.3-6.2-6.1 8.4-2.1-4.4-7.5 8.6.1-2.3-8.4 8.4 2.3-.1-8.6 7.5 4.4 2.1-8.4 6.1 6.2z" fill="#f8b26a" style="fill: rgb(248, 178, 106);"></path></g></g><g class="ldl-layer"><g class="ldl-ani" style="transform-origin: 50px 50px;"><circle fill="#ffdc6c" r="28.6" cy="50" cx="50.2" style="fill: rgb(255, 220, 108);"></circle></g></g><metadata xmlns:d="https://loading.io/stock/"><d:name>sun</d:name><d:tags>burn,scorch,flame,hot,warm,light,bright,solar,drought,sun,weather</d:tags><d:license>pro</d:license><d:slug>ooq69w</d:slug></metadata></g></g><style id="slide-ltr-in-96804a97-a191-43f2-b0e1-9c5ca10e7d4f" data-anikit="">@keyframes slide-ltr-in-96804a97-a191-43f2-b0e1-9c5ca10e7d4f
{
  0% {
    animation-timing-function: cubic-bezier(0.1006,0.3357,-0.2396,0.6703);
    transform: translate(-199px,0px) rotate(0deg) scale(1,1) skewX(0deg) skewY(0deg);
    opacity: 0.05;
  }
  2% {
    animation-timing-function: cubic-bezier(0.2668,0.6542,0.5372,0.8035);
    transform: translate(-124.8px,0px) rotate(0deg) scale(1,1) skewX(0deg) skewY(0deg);
    opacity: 1;
  }
  100% {
    transform: translate(0px,0px) rotate(0deg) scale(1,1) skewX(0deg) skewY(0deg);
    opacity: 1;
  }
}</style><!-- [ldio] generated by https://loading.io/ --></svg>