<?xml version="1.0" encoding="utf-8"?>
<svg viewBox="0 0 100 100" xmlns="http://www.w3.org/2000/svg" style="height: 100%; width: 100%; background: none; shape-rendering: auto;" width="128px" height="128px"><g class="ldl-scale" style="transform-origin: 50% 50%; transform: rotate(0deg) scale(0.8, 0.8);"><g class="ldl-ani"><g class="ldl-layer"><g class="ldl-ani" style="transform-origin: 50px 50px; opacity: 0; animation: 1.11111s linear 0.5s 1 normal forwards running fade-in-4c8615a9-326a-44b1-bd89-f3d85ba73d63;"><path stroke-miterlimit="10" stroke-linejoin="round" stroke-linecap="round" stroke-width="3" stroke="#333" fill="#f8b26a" d="M48.4 80.1h-8.5c-7.7 0-14-6.3-14-14v0h8.5c7.8 0 14 6.3 14 14h0z" style="fill: rgb(248, 178, 106); stroke: rgb(51, 51, 51);"></path></g></g><g class="ldl-layer"><g class="ldl-ani" style="transform-origin: 50px 50px; opacity: 0; animation: 1.11111s linear 0.444444s 1 normal forwards running fade-in-4c8615a9-326a-44b1-bd89-f3d85ba73d63;"><path stroke-miterlimit="10" stroke-linejoin="round" stroke-linecap="round" stroke-width="3" stroke="#333" fill="#f47e60" d="M51.6 80.1h8.5c7.7 0 14-6.3 14-14v0h-8.5c-7.8 0-14 6.3-14 14h0z" style="fill: rgb(244, 126, 96); stroke: rgb(51, 51, 51);"></path></g></g><g class="ldl-layer"><g class="ldl-ani" style="transform-origin: 50px 50px; opacity: 0; animation: 1.11111s linear 0.388889s 1 normal forwards running fade-in-4c8615a9-326a-44b1-bd89-f3d85ba73d63;"><path stroke-miterlimit="10" stroke-linejoin="round" stroke-linecap="round" stroke-width="3" stroke="#333" fill="#f8b26a" d="M48.4 65h-8.5c-7.7 0-14-6.3-14-14v0h8.5c7.8.1 14 6.3 14 14h0z" style="fill: rgb(248, 178, 106); stroke: rgb(51, 51, 51);"></path></g></g><g class="ldl-layer"><g class="ldl-ani" style="transform-origin: 50px 50px; opacity: 0; animation: 1.11111s linear 0.333333s 1 normal forwards running fade-in-4c8615a9-326a-44b1-bd89-f3d85ba73d63;"><path stroke-miterlimit="10" stroke-linejoin="round" stroke-linecap="round" stroke-width="3" stroke="#333" fill="#f47e60" d="M51.6 65h8.5c7.7 0 14-6.3 14-14v0h-8.5c-7.8.1-14 6.3-14 14h0z" style="fill: rgb(244, 126, 96); stroke: rgb(51, 51, 51);"></path></g></g><g class="ldl-layer"><g class="ldl-ani" style="transform-origin: 50px 50px; opacity: 0; animation: 1.11111s linear 0.277778s 1 normal forwards running fade-in-4c8615a9-326a-44b1-bd89-f3d85ba73d63;"><path stroke-miterlimit="10" stroke-linejoin="round" stroke-linecap="round" stroke-width="3" stroke="#333" fill="#f8b26a" d="M48.4 50h-8.5c-7.7 0-14-6.3-14-14v0h8.5c7.8 0 14 6.2 14 14h0z" style="fill: rgb(248, 178, 106); stroke: rgb(51, 51, 51);"></path></g></g><g class="ldl-layer"><g class="ldl-ani" style="transform-origin: 50px 50px; opacity: 0; animation: 1.11111s linear 0.222222s 1 normal forwards running fade-in-4c8615a9-326a-44b1-bd89-f3d85ba73d63;"><path stroke-miterlimit="10" stroke-linejoin="round" stroke-linecap="round" stroke-width="3" stroke="#333" fill="#f47e60" d="M51.6 50h8.5c7.7 0 14-6.3 14-14v0h-8.5c-7.8 0-14 6.2-14 14h0z" style="fill: rgb(244, 126, 96); stroke: rgb(51, 51, 51);"></path></g></g><g class="ldl-layer"><g class="ldl-ani" style="transform-origin: 50px 50px; opacity: 0; animation: 1.11111s linear 0.166667s 1 normal forwards running fade-in-4c8615a9-326a-44b1-bd89-f3d85ba73d63;"><path stroke-miterlimit="10" stroke-linejoin="round" stroke-linecap="round" stroke-width="3" stroke="#333" fill="#f8b26a" d="M48.4 34.9h-8.5c-7.7 0-14-6.3-14-14v0h8.5c7.8 0 14 6.3 14 14h0z" style="fill: rgb(248, 178, 106); stroke: rgb(51, 51, 51);"></path></g></g><g class="ldl-layer"><g class="ldl-ani" style="transform-origin: 50px 50px; opacity: 0; animation: 1.11111s linear 0.111111s 1 normal forwards running fade-in-4c8615a9-326a-44b1-bd89-f3d85ba73d63;"><path stroke-miterlimit="10" stroke-linejoin="round" stroke-linecap="round" stroke-width="3" stroke="#333" fill="#f47e60" d="M51.6 34.9h8.5c7.7 0 14-6.3 14-14v0h-8.5c-7.8 0-14 6.3-14 14h0z" style="fill: rgb(244, 126, 96); stroke: rgb(51, 51, 51);"></path></g></g><g class="ldl-layer"><g class="ldl-ani" style="transform-origin: 50px 50px; opacity: 0; animation: 1.11111s linear 0.0555556s 1 normal forwards running fade-in-4c8615a9-326a-44b1-bd89-f3d85ba73d63;"><path stroke-miterlimit="10" stroke-linejoin="round" stroke-linecap="round" stroke-width="3" stroke="#333" fill="#f8b26a" d="M57 17.5c0 6.9-7 12.5-7 12.5s-7-5.6-7-12.5S50 5 50 5s7 5.6 7 12.5z" style="fill: rgb(248, 178, 106); stroke: rgb(51, 51, 51);"></path></g></g><g class="ldl-layer"><g class="ldl-ani" style="transform-origin: 50px 50px; opacity: 0; animation: 1.11111s linear 0s 1 normal forwards running fade-in-4c8615a9-326a-44b1-bd89-f3d85ba73d63;"><path d="M50 30v65" stroke-miterlimit="10" stroke-linejoin="round" stroke-linecap="round" stroke-width="3" stroke="#333" fill="none" style="stroke: rgb(51, 51, 51);"></path></g></g><metadata xmlns:d="https://loading.io/stock/">
<d:name>wheat</d:name>
<d:tags>wheat,rice,seed,food,farm,agriculture,barn,granary</d:tags>
<d:license>by</d:license>
<d:slug>u2jd1c</d:slug>
</metadata></g></g><style id="fade-in-4c8615a9-326a-44b1-bd89-f3d85ba73d63" data-anikit="">@keyframes fade-in-4c8615a9-326a-44b1-bd89-f3d85ba73d63
{
  0% {
    animation-timing-function: cubic-bezier(0.2242,0.7499,0.3142,0.8148);
    opacity: 0;
  }
  100% {
    opacity: 1;
  }
}</style><!-- [ldio] generated by https://loading.io/ --></svg>