<svg id="epjsesor9s7i1" xmlns="http://www.w3.org/2000/svg" xmlns:xlink="http://www.w3.org/1999/xlink" viewBox="0 0 1920 1080" shape-rendering="geometricPrecision" text-rendering="geometricPrecision" width="1920" height="1080"><rect id="epjsesor9s7i2" width="1920" height="840" rx="0" ry="0" fill="rgb(244,244,244)" stroke="none" stroke-width="1"/><ellipse id="epjsesor9s7i3" rx="276.640000" ry="271.230000" transform="matrix(1 0 0 1 961.61000000000092 1349.04999999500046)" fill="rgb(255,192,0)" stroke="none" stroke-width="1"/><ellipse id="epjsesor9s7i4" rx="275.530000" ry="271.230000" transform="matrix(1 0 0 1 960.50000000000000 1351.80695418499636)" fill="rgb(255,0,0)" stroke="none" stroke-width="1"/><path id="epjsesor9s7i5" d="M6579.360000,7066.640000C6544.790000,7082.070000,6516.540000,7068.290000,6516.540000,7068.290000C6551.110000,7078.480000,6568.470000,7056.550000,6568.470000,7056.550000C6547.870000,7075.950000,6518.130000,7067.110000,6518.130000,7067.110000C6546.660000,7071.910000,6560.950000,7052.490000,6560.950000,7052.490000C6543.880000,7068.060000,6523.260000,7066.030000,6519.500000,7065.510000C6519.510000,7065.510000,6547.230000,7062.180000,6563.980000,7038.580000C6563.980000,7038.580000,6542.710000,7061.360000,6519.150000,7063.120000C6539.430000,7053.190000,6554.280000,7029,6554.280000,7029C6537.030000,7049.680000,6523.570000,7058.050000,6517.440000,7061.100000C6522.330000,7036.270000,6540.480000,7023.560000,6540.480000,7023.560000C6521.300000,7031.820000,6514.410000,7061.890000,6514.410000,7061.890000C6514.410000,7061.890000,6507.590000,7039.310000,6522.600000,7018.660000C6522.600000,7018.660000,6504.880000,7035.010000,6512.810000,7062.840000C6512.810000,7062.840000,6500.730000,7034.260000,6517.740000,7011.640000C6517.740000,7011.640000,6497.860000,7031.320000,6511.810000,7064.550000C6511.810000,7064.550000,6494.990000,7037.990000,6506.510000,7001.930000C6506.510000,7001.930000,6491.260000,7032.260000,6509.940000,7065.960000C6509.940000,7065.960000,6492.520000,7041.140000,6493.760000,7025.480000C6493.760000,7025.480000,6491.040000,7046.970000,6510.800000,7069.120000C6496.330000,7081.250000,6478.850000,7083.570000,6474.530000,7083.970000C6473.920000,7084.030000,6473.340000,7083.720000,6473.040000,7083.190000C6472.750000,7082.680000,6472.200000,7082.380000,6471.620000,7082.410000L6454.220000,7083.180000C6453.520000,7083.210000,6452.840000,7083.490000,6452.330000,7083.970000L6450.990000,7085.210000C6449.810000,7086.290000,6449.700000,7088.110000,6450.740000,7089.330000C6451.340000,7090.040000,6452.230000,7090.430000,6453.160000,7090.390000L6465.900000,7089.800000C6467.840000,7089.710000,6469.710000,7089.060000,6471.290000,7087.940000C6472.480000,7087.090000,6473.850000,7086.510000,6475.290000,7086.240000C6494.470000,7082.740000,6506.880000,7074.480000,6512.170000,7070.280000C6536.200000,7087.110000,6557.380000,7081.910000,6557.380000,7081.910000C6541.950000,7084.870000,6515.360000,7070.310000,6515.360000,7070.310000C6550.900000,7085.160000,6579.360000,7066.640000,6579.360000,7066.640000Z" transform="matrix(1 0 0 1 -7159.50000000500040 -6935.95796946000155)" fill="none" stroke="none" stroke-width="1"/><path id="epjsesor9s7i6" d="M6635.060000,7142.880000C6616.700000,7175.520000,6586.140000,7181.240000,6586.140000,7181.240000C6619.610000,7168.950000,6620.470000,7141.290000,6620.470000,7141.290000C6615.550000,7168.850000,6586.710000,7179.360000,6586.710000,7179.360000C6612.200000,7166.350000,6612.110000,7142.500000,6612.110000,7142.500000C6607.730000,7164.940000,6590.160000,7175.480000,6586.860000,7177.280000C6586.860000,7177.280000,6606.920000,7158.280000,6606.310000,7129.660000C6606.310000,7129.660000,6602.840000,7160.300000,6585.170000,7175.590000C6595.420000,7155.750000,6592.950000,7127.770000,6592.950000,7127.770000C6591.440000,7154.370000,6585.690000,7168.960000,6582.620000,7175C6571.860000,7152.390000,6578.780000,7131.590000,6578.780000,7131.590000C6568.420000,7149.460000,6580.680000,7177.410000,6580.680000,7177.410000C6580.680000,7177.410000,6561.950000,7163.500000,6561.700000,7138.240000C6561.700000,7138.240000,6557.270000,7161.680000,6579.970000,7179.100000C6579.970000,7179.100000,6553.520000,7163.520000,6553.690000,7135.530000C6553.690000,7135.530000,6549.510000,7162.890000,6580.180000,7181.050000C6580.180000,7181.050000,6551.160000,7169.870000,6539.040000,7134.440000C6539.040000,7134.440000,6544.810000,7167.520000,6579.520000,7183.280000C6579.520000,7183.280000,6551.050000,7173.840000,6542.800000,7160.660000C6542.800000,7160.660000,6553.310000,7179.340000,6582.070000,7185.270000C6577.730000,7203.440000,6565.210000,7215.590000,6562.020000,7218.450000C6561.570000,7218.850000,6560.930000,7218.950000,6560.380000,7218.710000C6559.850000,7218.480000,6559.230000,7218.560000,6558.790000,7218.930000L6545.430000,7229.810000C6544.890000,7230.250000,6544.520000,7230.870000,6544.390000,7231.550000L6544.060000,7233.320000C6543.770000,7234.870000,6544.750000,7236.380000,6546.290000,7236.750000C6547.180000,7236.960000,6548.120000,7236.740000,6548.830000,7236.160000L6558.600000,7228.180000C6560.090000,7226.970000,6561.190000,7225.350000,6561.780000,7223.520000C6562.230000,7222.140000,6562.970000,7220.870000,6563.960000,7219.810000C6577.130000,7205.720000,6582.110000,7191.840000,6583.850000,7185.390000C6612.860000,7184.590000,6626.620000,7167.970000,6626.620000,7167.970000C6616.110000,7179.430000,6586.400000,7183.540000,6586.400000,7183.540000C6623.370000,7174.360000,6635.060000,7142.880000,6635.060000,7142.880000Z" transform="matrix(1 0 0 1 -7159.50000000500040 -6935.95796946000155)" fill="none" stroke="none" stroke-width="1"/><path id="epjsesor9s7i7" d="M6767.090000,7182.020000C6748.730000,7214.660000,6718.170000,7220.380000,6718.170000,7220.380000C6751.640000,7208.090000,6752.500000,7180.430000,6752.500000,7180.430000C6747.580000,7207.990000,6718.740000,7218.500000,6718.740000,7218.500000C6744.230000,7205.490000,6744.140000,7181.640000,6744.140000,7181.640000C6739.760000,7204.080000,6722.190000,7214.620000,6718.890000,7216.420000C6718.890000,7216.420000,6738.950000,7197.420000,6738.340000,7168.800000C6738.340000,7168.800000,6734.870000,7199.440000,6717.200000,7214.730000C6727.450000,7194.890000,6724.980000,7166.910000,6724.980000,7166.910000C6723.470000,7193.510000,6717.720000,7208.100000,6714.650000,7214.130000C6703.890000,7191.520000,6710.810000,7170.720000,6710.810000,7170.720000C6700.450000,7188.590000,6712.710000,7216.540000,6712.710000,7216.540000C6712.710000,7216.540000,6693.980000,7202.630000,6693.730000,7177.370000C6693.730000,7177.370000,6689.300000,7200.810000,6712,7218.230000C6712,7218.230000,6685.550000,7202.650000,6685.720000,7174.660000C6685.720000,7174.660000,6681.540000,7202.020000,6712.210000,7220.180000C6712.210000,7220.180000,6683.190000,7209,6671.070000,7173.570000C6671.070000,7173.570000,6676.840000,7206.650000,6711.550000,7222.410000C6711.550000,7222.410000,6683.080000,7212.970000,6674.830000,7199.790000C6674.830000,7199.790000,6685.340000,7218.470000,6714.100000,7224.400000C6709.760000,7242.570000,6697.240000,7254.720000,6694.050000,7257.580000C6693.600000,7257.980000,6692.960000,7258.080000,6692.410000,7257.840000C6691.880000,7257.610000,6691.260000,7257.690000,6690.820000,7258.060000L6677.460000,7268.940000C6676.920000,7269.380000,6676.550000,7270,6676.420000,7270.680000L6676.090000,7272.450000C6675.800000,7274,6676.780000,7275.510000,6678.320000,7275.880000C6679.210000,7276.090000,6680.150000,7275.870000,6680.870000,7275.290000L6690.640000,7267.310000C6692.130000,7266.100000,6693.230000,7264.480000,6693.820000,7262.650000C6694.270000,7261.270000,6695.010000,7260,6696,7258.940000C6709.170000,7244.850000,6714.150000,7230.970000,6715.890000,7224.520000C6744.900000,7223.720000,6758.660000,7207.100000,6758.660000,7207.100000C6748.150000,7218.560000,6718.440000,7222.670000,6718.440000,7222.670000C6755.410000,7213.500000,6767.090000,7182.020000,6767.090000,7182.020000Z" transform="matrix(1 0 0 1 -7159.50000000500040 -6935.95796946000155)" fill="none" stroke="none" stroke-width="1"/><path id="epjsesor9s7i8" d="M6842.330000,7286.980000C6823.970000,7319.620000,6793.410000,7325.340000,6793.410000,7325.340000C6826.880000,7313.050000,6827.740000,7285.390000,6827.740000,7285.390000C6822.820000,7312.950000,6793.980000,7323.460000,6793.980000,7323.460000C6819.470000,7310.450000,6819.380000,7286.600000,6819.380000,7286.600000C6815,7309.040000,6797.430000,7319.580000,6794.130000,7321.380000C6794.130000,7321.380000,6814.190000,7302.380000,6813.580000,7273.760000C6813.580000,7273.760000,6810.110000,7304.400000,6792.440000,7319.690000C6802.690000,7299.850000,6800.220000,7271.870000,6800.220000,7271.870000C6798.710000,7298.470000,6792.960000,7313.060000,6789.890000,7319.090000C6779.130000,7296.480000,6786.050000,7275.680000,6786.050000,7275.680000C6775.690000,7293.550000,6787.950000,7321.500000,6787.950000,7321.500000C6787.950000,7321.500000,6769.220000,7307.590000,6768.970000,7282.330000C6768.970000,7282.330000,6764.540000,7305.770000,6787.240000,7323.190000C6787.240000,7323.190000,6760.790000,7307.610000,6760.960000,7279.620000C6760.960000,7279.620000,6756.780000,7306.980000,6787.450000,7325.140000C6787.450000,7325.140000,6758.430000,7313.960000,6746.310000,7278.530000C6746.310000,7278.530000,6752.080000,7311.610000,6786.790000,7327.370000C6786.790000,7327.370000,6758.320000,7317.930000,6750.070000,7304.750000C6750.070000,7304.750000,6760.580000,7323.430000,6789.340000,7329.360000C6785,7347.530000,6772.480000,7359.680000,6769.290000,7362.540000C6768.840000,7362.940000,6768.200000,7363.040000,6767.650000,7362.800000C6767.120000,7362.570000,6766.500000,7362.650000,6766.060000,7363.020000L6752.700000,7373.900000C6752.160000,7374.340000,6751.790000,7374.960000,6751.660000,7375.640000L6751.330000,7377.410000C6751.040000,7378.960000,6752.020000,7380.470000,6753.560000,7380.840000C6754.450000,7381.050000,6755.390000,7380.830000,6756.100000,7380.250000L6765.870000,7372.270000C6767.360000,7371.060000,6768.460000,7369.440000,6769.050000,7367.610000C6769.500000,7366.230000,6770.240000,7364.960000,6771.230000,7363.900000C6784.400000,7349.810000,6789.380000,7335.930000,6791.120000,7329.480000C6820.130000,7328.680000,6833.890000,7312.060000,6833.890000,7312.060000C6823.380000,7323.520000,6793.670000,7327.630000,6793.670000,7327.630000C6830.650000,7318.470000,6842.330000,7286.980000,6842.330000,7286.980000Z" transform="matrix(1 0 0 1 -6239.50000000000000 -6659.50000000000182)" fill="none" stroke="none" stroke-width="1"/><path id="epjsesor9s7i9" d="M6804.880000,7061.260000C6786.520000,7093.900000,6755.960000,7099.620000,6755.960000,7099.620000C6789.430000,7087.330000,6790.290000,7059.670000,6790.290000,7059.670000C6785.370000,7087.230000,6756.530000,7097.740000,6756.530000,7097.740000C6782.020000,7084.730000,6781.930000,7060.880000,6781.930000,7060.880000C6777.550000,7083.320000,6759.980000,7093.860000,6756.680000,7095.670000C6756.680000,7095.670000,6776.740000,7076.670000,6776.130000,7048.050000C6776.130000,7048.050000,6772.660000,7078.690000,6754.990000,7093.980000C6765.240000,7074.140000,6762.770000,7046.160000,6762.770000,7046.160000C6761.260000,7072.760000,6755.510000,7087.350000,6752.440000,7093.390000C6741.680000,7070.780000,6748.600000,7049.980000,6748.600000,7049.980000C6738.240000,7067.850000,6750.500000,7095.800000,6750.500000,7095.800000C6750.500000,7095.800000,6731.770000,7081.890000,6731.520000,7056.630000C6731.520000,7056.630000,6727.090000,7080.070000,6749.790000,7097.490000C6749.790000,7097.490000,6723.340000,7081.910000,6723.510000,7053.920000C6723.510000,7053.920000,6719.330000,7081.280000,6750,7099.440000C6750,7099.440000,6720.980000,7088.260000,6708.860000,7052.830000C6708.860000,7052.830000,6714.630000,7085.910000,6749.340000,7101.670000C6749.340000,7101.670000,6720.870000,7092.230000,6712.620000,7079.050000C6712.620000,7079.050000,6723.130000,7097.730000,6751.890000,7103.660000C6747.550000,7121.830000,6735.030000,7133.980000,6731.840000,7136.840000C6731.390000,7137.240000,6730.750000,7137.340000,6730.200000,7137.100000C6729.670000,7136.870000,6729.050000,7136.950000,6728.610000,7137.320000L6715.250000,7148.200000C6714.710000,7148.640000,6714.340000,7149.260000,6714.210000,7149.940000L6713.880000,7151.710000C6713.590000,7153.260000,6714.570000,7154.770000,6716.110000,7155.140000C6717,7155.350000,6717.940000,7155.130000,6718.660000,7154.550000L6728.430000,7146.570000C6729.920000,7145.360000,6731.020000,7143.740000,6731.610000,7141.910000C6732.060000,7140.530000,6732.800000,7139.260000,6733.790000,7138.200000C6746.960000,7124.110000,6751.940000,7110.230000,6753.680000,7103.780000C6782.690000,7102.980000,6796.450000,7086.360000,6796.450000,7086.360000C6785.940000,7097.820000,6756.230000,7101.930000,6756.230000,7101.930000C6793.200000,7092.750000,6804.880000,7061.260000,6804.880000,7061.260000Z" transform="matrix(1 0 0 1 -7159.50000000500040 -6935.95796946000155)" fill="none" stroke="none" stroke-width="1"/><rect id="epjsesor9s7i10" width="1920.500000" height="1080" rx="0" ry="0" transform="matrix(1 0 0 1 -0.50000000000000 0.00000000999989)" fill="rgb(88,38,7)" stroke="none" stroke-width="1"/><rect id="epjsesor9s7i11" width="1920" height="1080" rx="0" ry="0" fill="rgb(0,0,0)" fill-opacity="0" stroke="none" stroke-width="1"/><rect id="epjsesor9s7i12" width="700" height="100" rx="0" ry="0" transform="matrix(1 0 0 1 610.00000000000091 910.00000000000364)" fill="rgb(248,248,248)" fill-opacity="0" stroke="none" stroke-width="1"/><text id="epjsesor9s7i13" dx="0" dy="0" font-family="NirmalaUI-Semilight" font-size="160" transform="matrix(1 0 0 1 1002.32812500000045 510.53468749500053)" fill="rgb(0,0,0)" fill-opacity="0" stroke="none" stroke-width="1"><![CDATA[DAND]]></text><path id="epjsesor9s7i14" d="M1153.980000,724.161015C1153.980000,515.487415,1131.350000,346.630000,1103.380000,346.630000" transform="matrix(-1 0 0 1 2633.38000000499915 499.88000000000113)" fill="none" stroke="rgb(0,0,0)" stroke-width="8" stroke-opacity="0" stroke-miterlimit="10"/><path id="epjsesor9s7i15" d="M6804.880000,7061.260000C6786.520000,7093.900000,6755.960000,7099.620000,6755.960000,7099.620000C6789.430000,7087.330000,6790.290000,7059.670000,6790.290000,7059.670000C6785.370000,7087.230000,6756.530000,7097.740000,6756.530000,7097.740000C6782.020000,7084.730000,6781.930000,7060.880000,6781.930000,7060.880000C6777.550000,7083.320000,6759.980000,7093.860000,6756.680000,7095.670000C6756.680000,7095.670000,6776.740000,7076.670000,6776.130000,7048.050000C6776.130000,7048.050000,6772.660000,7078.690000,6754.990000,7093.980000C6765.240000,7074.140000,6762.770000,7046.160000,6762.770000,7046.160000C6761.260000,7072.760000,6755.510000,7087.350000,6752.440000,7093.390000C6741.680000,7070.780000,6748.600000,7049.980000,6748.600000,7049.980000C6738.240000,7067.850000,6750.500000,7095.800000,6750.500000,7095.800000C6750.500000,7095.800000,6731.770000,7081.890000,6731.520000,7056.630000C6731.520000,7056.630000,6727.090000,7080.070000,6749.790000,7097.490000C6749.790000,7097.490000,6723.340000,7081.910000,6723.510000,7053.920000C6723.510000,7053.920000,6719.330000,7081.280000,6750,7099.440000C6750,7099.440000,6720.980000,7088.260000,6708.860000,7052.830000C6708.860000,7052.830000,6714.630000,7085.910000,6749.340000,7101.670000C6749.340000,7101.670000,6720.870000,7092.230000,6712.620000,7079.050000C6712.620000,7079.050000,6723.130000,7097.730000,6751.890000,7103.660000C6747.550000,7121.830000,6735.030000,7133.980000,6731.840000,7136.840000C6731.390000,7137.240000,6730.750000,7137.340000,6730.200000,7137.100000C6729.670000,7136.870000,6729.050000,7136.950000,6728.610000,7137.320000L6715.250000,7148.200000C6714.710000,7148.640000,6714.340000,7149.260000,6714.210000,7149.940000L6713.880000,7151.710000C6713.590000,7153.260000,6714.570000,7154.770000,6716.110000,7155.140000C6717,7155.350000,6717.940000,7155.130000,6718.660000,7154.550000L6728.430000,7146.570000C6729.920000,7145.360000,6731.020000,7143.740000,6731.610000,7141.910000C6732.060000,7140.530000,6732.800000,7139.260000,6733.790000,7138.200000C6746.960000,7124.110000,6751.940000,7110.230000,6753.680000,7103.780000C6782.690000,7102.980000,6796.450000,7086.360000,6796.450000,7086.360000C6785.940000,7097.820000,6756.230000,7101.930000,6756.230000,7101.930000C6793.200000,7092.750000,6804.880000,7061.260000,6804.880000,7061.260000Z" transform="matrix(1 0 0 1 -6884.88000000000102 -6611.49578195499998)" fill="rgb(0,0,0)" stroke="none" stroke-width="1"/><path id="epjsesor9s7i16" d="M6599.040000,7142.880000C6587.567390,7175.520000,6568.471368,7181.240000,6568.471368,7181.240000C6589.385761,7168.950000,6589.923149,7141.290000,6589.923149,7141.290000C6586.848790,7168.850000,6568.827544,7179.360000,6568.827544,7179.360000C6584.755476,7166.350000,6584.699238,7142.500000,6584.699238,7142.500000C6581.962308,7164.940000,6570.983345,7175.480000,6568.921275,7177.280000C6568.921275,7177.280000,6581.456163,7158.280000,6581.074993,7129.660000C6581.074993,7129.660000,6578.906694,7160.300000,6567.865245,7175.590000C6574.270160,7155.750000,6572.726732,7127.770000,6572.726732,7127.770000C6571.783179,7154.370000,6568.190177,7168.960000,6566.271827,7175C6559.548227,7152.390000,6563.872327,7131.590000,6563.872327,7131.590000C6557.398675,7149.460000,6565.059579,7177.410000,6565.059579,7177.410000C6565.059579,7177.410000,6553.355768,7163.500000,6553.199550,7138.240000C6553.199550,7138.240000,6550.431377,7161.680000,6564.615922,7179.100000C6564.615922,7179.100000,6548.088115,7163.520000,6548.194343,7135.530000C6548.194343,7135.530000,6545.582387,7162.890000,6564.747144,7181.050000C6564.747144,7181.050000,6546.613422,7169.870000,6539.040000,7134.440000C6539.040000,7134.440000,6542.645499,7167.520000,6564.334730,7183.280000C6564.334730,7183.280000,6546.544687,7173.840000,6541.389511,7160.660000C6541.389511,7160.660000,6547.956892,7179.340000,6565.928148,7185.270000C6563.216213,7203.440000,6555.392843,7215.590000,6553.399508,7218.450000C6553.118317,7218.850000,6552.718400,7218.950000,6552.374722,7218.710000C6552.043541,7218.480000,6551.656122,7218.560000,6551.381179,7218.930000L6543.032918,7229.810000C6542.695488,7230.250000,6542.464287,7230.870000,6542.383054,7231.550000L6542.176846,7233.320000C6541.995634,7234.870000,6542.608007,7236.380000,6543.570306,7236.750000C6544.126440,7236.960000,6544.713818,7236.740000,6545.157476,7236.160000L6551.262454,7228.180000C6552.193510,7226.970000,6552.880866,7225.350000,6553.249540,7223.520000C6553.530731,7222.140000,6553.993135,7220.870000,6554.611756,7219.810000C6562.841291,7205.720000,6565.953143,7191.840000,6567.040417,7185.390000C6585.167890,7184.590000,6593.766099,7167.970000,6593.766099,7167.970000C6587.198717,7179.430000,6568.633835,7183.540000,6568.633835,7183.540000C6591.735272,7174.360000,6599.040000,7142.880000,6599.040000,7142.880000Z" transform="matrix(1 0 0 1 -6839.04000000000087 -7005.87593891500001)" fill="rgb(255,255,255)" stroke="none" stroke-width="1"/><text id="epjsesor9s7i17" dx="0" dy="0" font-family="NirmalaUI-Semilight" font-size="160" transform="matrix(1 0 0 1 1464.39062500000045 513.30492222500061)" fill="rgb(255,192,0)" fill-opacity="0" stroke="none" stroke-width="1"><![CDATA[Y]]></text><text id="epjsesor9s7i18" dx="0" dy="0" font-family="Segoe UI" font-size="60" transform="matrix(1 0 0 1 687.87500000000068 985.42968749500096)" fill="rgb(0,0,0)" fill-opacity="0" stroke="none" stroke-width="1"><![CDATA[Find your dream city]]></text><script><![CDATA[!function(t,n){"object"==typeof exports&&"undefined"!=typeof module?module.exports=n():"function"==typeof define&&define.amd?define(n):(t=t||self).__SVGATOR_PLAYER__=n()}(this,(function(){"use strict";function t(n){return(t="function"==typeof Symbol&&"symbol"==typeof Symbol.iterator?function(t){return typeof t}:function(t){return t&&"function"==typeof Symbol&&t.constructor===Symbol&&t!==Symbol.prototype?"symbol":typeof t})(n)}function n(t,n){if(!(t instanceof n))throw new TypeError("Cannot call a class as a function")}function r(t,n){for(var r=0;r<n.length;r++){var e=n[r];e.enumerable=e.enumerable||!1,e.configurable=!0,"value"in e&&(e.writable=!0),Object.defineProperty(t,e.key,e)}}function e(t,n,e){return n&&r(t.prototype,n),e&&r(t,e),t}var i=1e-5,u=Math.abs;function o(t){return t}function a(t,n,r){var e=1-r;return 3*r*e*(t*e+n*r)+r*r*r}function l(){var t=arguments.length>0&&void 0!==arguments[0]?arguments[0]:0,n=arguments.length>1&&void 0!==arguments[1]?arguments[1]:0,r=arguments.length>2&&void 0!==arguments[2]?arguments[2]:1,e=arguments.length>3&&void 0!==arguments[3]?arguments[3]:1;return t<0||t>1||r<0||r>1?null:u(t-n)<=i&&u(r-e)<=i?o:function(o){if(o<=0)return t>0?o*n/t:0===n&&r>0?o*e/r:0;if(o>=1)return r<1?1+(o-1)*(e-1)/(r-1):1===r&&t<1?1+(o-1)*(n-1)/(t-1):1;for(var l,f=0,s=1;f<s;){var c=a(t,r,l=(f+s)/2);if(u(o-c)<i)break;c<o?f=l:s=l}return a(n,e,l)}}function f(){return 1}function s(t){return 1===t?1:0}function c(){var t=arguments.length>0&&void 0!==arguments[0]?arguments[0]:1,n=arguments.length>1&&void 0!==arguments[1]?arguments[1]:0;if(1===t){if(0===n)return s;if(1===n)return f}var r=1/t;return function(t){return t>=1?1:(t+=n*r)-t%r}}function v(t){var n=arguments.length>1&&void 0!==arguments[1]?arguments[1]:2;if(Number.isInteger(t))return t;var r=Math.pow(10,n);return Math.round(t*r)/r}var h=Math.PI/180;function y(t,n,r){return t>=.5?r:n}function d(t,n,r){return 0===t||n===r?n:t*(r-n)+n}function g(t,n,r){var e=d(t,n,r);return e<=0?0:e}function m(t,n,r){return 0===t?n:1===t?r:{x:d(t,n.x,r.x),y:d(t,n.y,r.y)}}function p(t,n,r){return 0===t?n:1===t?r:{x:g(t,n.x,r.x),y:g(t,n.y,r.y)}}function b(t,n,r){var e=function(t,n,r){return Math.round(d(t,n,r))}(t,n,r);return e<=0?0:e>=255?255:e}function w(t,n,r){return 0===t?n:1===t?r:{r:b(t,n.r,r.r),g:b(t,n.g,r.g),b:b(t,n.b,r.b),a:d(t,null==n.a?1:n.a,null==r.a?1:r.a)}}function A(t,n,r){if(0===t)return n;if(1===t)return r;var e=n.length;if(e!==r.length)return y(t,n,r);for(var i=[],u=0;u<e;u++)i.push(w(t,n[u],r[u]));return i}function x(t,n,r){var e=n.length;if(e!==r.length)return y(t,n,r);for(var i=new Array(e),u=0;u<e;u++)i[u]=d(t,n[u],r[u]);return i}function k(t,n){for(var r=[],e=0;e<t;e++)r.push(n);return r}function S(t,n){if(--n<=0)return t;var r=(t=Object.assign([],t)).length;do{for(var e=0;e<r;e++)t.push(t[e])}while(--n>0);return t}var _=6,M=/\.0+$/g;function I(t){return Number.isInteger(t)?t+"":t.toFixed(_).replace(M,"")}function E(t){var n=arguments.length>1&&void 0!==arguments[1]?arguments[1]:" ";return t&&t.length?t.map(I).join(n):""}function F(t){return I(t.x)+","+I(t.y)}function B(t){return t?null==t.a||t.a>=1?"rgb("+t.r+","+t.g+","+t.b+")":"rgba("+t.r+","+t.g+","+t.b+","+t.a+")":"transparent"}var j={f:null,i:p,u:function(t,n){return function(r){var e=n(r);t.setAttribute("rx",I(e.x)),t.setAttribute("ry",I(e.y))}}},q={f:null,i:function(t,n,r){return 0===t?n:1===t?r:{width:g(t,n.width,r.width),height:g(t,n.height,r.height)}},u:function(t,n){return function(r){var e=n(r);t.setAttribute("width",I(e.width)),t.setAttribute("height",I(e.height))}}},P=Math.sin,O=Math.cos,z=Math.acos,L=Math.asin,C=Math.tan,R=Math.atan2,T=Math.PI/180,V=180/Math.PI,D=Math.sqrt,N=function(){function t(){var r=arguments.length>0&&void 0!==arguments[0]?arguments[0]:1,e=arguments.length>1&&void 0!==arguments[1]?arguments[1]:0,i=arguments.length>2&&void 0!==arguments[2]?arguments[2]:0,u=arguments.length>3&&void 0!==arguments[3]?arguments[3]:1,o=arguments.length>4&&void 0!==arguments[4]?arguments[4]:0,a=arguments.length>5&&void 0!==arguments[5]?arguments[5]:0;n(this,t),this.m=[r,e,i,u,o,a],this.i=null,this.w=null,this.s=null}return e(t,[{key:"point",value:function(t,n){var r=this.m;return{x:r[0]*t+r[2]*n+r[4],y:r[1]*t+r[3]*n+r[5]}}},{key:"translateSelf",value:function(){var t=arguments.length>0&&void 0!==arguments[0]?arguments[0]:0,n=arguments.length>1&&void 0!==arguments[1]?arguments[1]:0;if(!t&&!n)return this;var r=this.m;return r[4]+=r[0]*t+r[2]*n,r[5]+=r[1]*t+r[3]*n,this.w=this.s=this.i=null,this}},{key:"rotateSelf",value:function(){var t=arguments.length>0&&void 0!==arguments[0]?arguments[0]:0;if(t%=360){var n=P(t*=T),r=O(t),e=this.m,i=e[0],u=e[1];e[0]=i*r+e[2]*n,e[1]=u*r+e[3]*n,e[2]=e[2]*r-i*n,e[3]=e[3]*r-u*n,this.w=this.s=this.i=null}return this}},{key:"scaleSelf",value:function(){var t=arguments.length>0&&void 0!==arguments[0]?arguments[0]:1,n=arguments.length>1&&void 0!==arguments[1]?arguments[1]:1;if(1!==t||1!==n){var r=this.m;r[0]*=t,r[1]*=t,r[2]*=n,r[3]*=n,this.w=this.s=this.i=null}return this}},{key:"skewSelf",value:function(t,n){if(n%=360,(t%=360)||n){var r=this.m,e=r[0],i=r[1],u=r[2],o=r[3];t&&(t=C(t*T),r[2]+=e*t,r[3]+=i*t),n&&(n=C(n*T),r[0]+=u*n,r[1]+=o*n),this.w=this.s=this.i=null}return this}},{key:"resetSelf",value:function(){var t=arguments.length>0&&void 0!==arguments[0]?arguments[0]:1,n=arguments.length>1&&void 0!==arguments[1]?arguments[1]:0,r=arguments.length>2&&void 0!==arguments[2]?arguments[2]:0,e=arguments.length>3&&void 0!==arguments[3]?arguments[3]:1,i=arguments.length>4&&void 0!==arguments[4]?arguments[4]:0,u=arguments.length>5&&void 0!==arguments[5]?arguments[5]:0,o=this.m;return o[0]=t,o[1]=n,o[2]=r,o[3]=e,o[4]=i,o[5]=u,this.w=this.s=this.i=null,this}},{key:"recomposeSelf",value:function(){var t=arguments.length>0&&void 0!==arguments[0]?arguments[0]:null,n=arguments.length>1&&void 0!==arguments[1]?arguments[1]:null,r=arguments.length>2&&void 0!==arguments[2]?arguments[2]:null,e=arguments.length>3&&void 0!==arguments[3]?arguments[3]:null,i=arguments.length>4&&void 0!==arguments[4]?arguments[4]:null;return this.isIdentity||this.resetSelf(),t&&(t.x||t.y)&&this.translateSelf(t.x,t.y),n&&this.rotateSelf(n),r&&(r.x&&this.skewSelf(r.x,0),r.y&&this.skewSelf(0,r.y)),!e||1===e.x&&1===e.y||this.scaleSelf(e.x,e.y),i&&(i.x||i.y)&&this.translateSelf(i.x,i.y),this}},{key:"decompose",value:function(){var t=arguments.length>0&&void 0!==arguments[0]?arguments[0]:0,n=arguments.length>1&&void 0!==arguments[1]?arguments[1]:0,r=this.m,e=r[0]*r[0]+r[1]*r[1],i=[[r[0],r[1]],[r[2],r[3]]],u=D(e);if(0===u)return{origin:{x:r[4],y:r[5]},translate:{x:t,y:n},scale:{x:0,y:0},skew:{x:0,y:0},rotate:0};i[0][0]/=u,i[0][1]/=u;var o=r[0]*r[3]-r[1]*r[2]<0;o&&(u=-u);var a=i[0][0]*i[1][0]+i[0][1]*i[1][1];i[1][0]-=i[0][0]*a,i[1][1]-=i[0][1]*a;var l=D(i[1][0]*i[1][0]+i[1][1]*i[1][1]);if(0===l)return{origin:{x:r[4],y:r[5]},translate:{x:t,y:n},scale:{x:u,y:0},skew:{x:0,y:0},rotate:0};i[1][0]/=l,i[1][1]/=l,a/=l;var f=0;return i[1][1]<0?(f=z(i[1][1])*V,i[0][1]<0&&(f=360-f)):f=L(i[0][1])*V,o&&(f=-f),a=R(a,D(i[0][0]*i[0][0]+i[0][1]*i[0][1]))*V,{origin:{x:r[4],y:r[5]},translate:{x:t,y:n},scale:{x:u,y:l},skew:{x:a,y:0},rotate:f}}},{key:"toString",value:function(){return null===this.s&&(this.s="matrix("+this.m.map($).join(" ")+")"),this.s}},{key:"determinant",get:function(){var t=this.m;return t[0]*t[3]-t[1]*t[2]}},{key:"isIdentity",get:function(){if(null===this.i){var t=this.m;this.i=1===t[0]&&0===t[1]&&0===t[2]&&1===t[3]&&0===t[4]&&0===t[5]}return this.i}}]),t}(),G=/\.0+$/;function $(t){return Number.isInteger(t)?t:t.toFixed(14).replace(G,"")}Object.freeze({M:2,L:2,Z:0,H:1,V:1,C:6,Q:4,T:2,S:4,A:7});function H(t,n,r){return t+(n-t)*r}function Q(t,n,r){var e=arguments.length>3&&void 0!==arguments[3]&&arguments[3],i={x:H(t.x,n.x,r),y:H(t.y,n.y,r)};return e&&(i.a=function(t,n){return Math.atan2(n.y-t.y,n.x-t.x)}(t,n)),i}function U(t,n,r,e){var i=1-e;return i*i*t+2*i*e*n+e*e*r}function Y(t,n,r,e){return 2*(1-e)*(n-t)+2*e*(r-n)}function Z(t,n,r,e){var i=arguments.length>4&&void 0!==arguments[4]&&arguments[4],u={x:U(t.x,n.x,r.x,e),y:U(t.y,n.y,r.y,e)};return i&&(u.a=function(t,n,r,e){return Math.atan2(Y(t.y,n.y,r.y,e),Y(t.x,n.x,r.x,e))}(t,n,r,e)),u}function J(t,n,r,e,i){var u=i*i;return i*u*(e-t+3*(n-r))+3*u*(t+r-2*n)+3*i*(n-t)+t}function K(t,n,r,e,i){var u=1-i;return 3*(u*u*(n-t)+2*u*i*(r-n)+i*i*(e-r))}function W(t,n,r,e,i){var u=arguments.length>5&&void 0!==arguments[5]&&arguments[5],o={x:J(t.x,n.x,r.x,e.x,i),y:J(t.y,n.y,r.y,e.y,i)};return u&&(o.a=function(t,n,r,e,i){return Math.atan2(K(t.y,n.y,r.y,e.y,i),K(t.x,n.x,r.x,e.x,i))}(t,n,r,e,i)),o}function X(t,n,r){var e,i=arguments.length>3&&void 0!==arguments[3]&&arguments[3];if(nt(n)){if(null!=(e=r).start&&!nt(e))return Z(n,r.start,r,t,i)}else if(nt(r)){if(n.end)return Z(n,n.end,r,t,i)}else{if(n.end)return r.start?W(n,n.end,r.start,r,t,i):Z(n,n.end,r,t,i);if(r.start)return Z(n,r.start,r,t,i)}return Q(n,r,t,i)}function tt(t,n,r){var e=X(t,n,r,!0);return e.a=function(t){return arguments.length>1&&void 0!==arguments[1]&&arguments[1]?t+Math.PI:t}(e.a)/h,e}function nt(t){return!t.type||"corner"===t.type}var rt=new N;var et={f:function(t){return t?t.join(" "):""},i:function(n,r,e){if(0===n)return r;if(1===n)return e;var i=r.length;if(i!==e.length)return y(n,r,e);for(var u,o=new Array(i),a=0;a<i;a++){if((u=t(r[a]))!==t(e[a]))return y(n,r,e);if("number"===u)o[a]=d(n,r[a],e[a]);else{if(r[a]!==e[a])return y(n,r,e);o[a]=r[a]}}return o}},it={f:null,i:x,u:function(t,n){return function(r){var e=n(r);t.setAttribute("x1",I(e[0])),t.setAttribute("y1",I(e[1])),t.setAttribute("x2",I(e[2])),t.setAttribute("y2",I(e[3]))}}},ut={f:I,i:d},ot={f:I,i:function(t,n,r){var e=d(t,n,r);return e<=0?0:e>=1?1:e}},at={f:E,i:function(t,n,r){var e,i,u,o=n.length,a=r.length;if(o!==a)if(0===o)n=k(o=a,0);else if(0===a)a=o,r=k(o,0);else{var l=(u=(e=o)*(i=a)/function(t,n){for(var r;n;)r=n,n=t%n,t=r;return t||1}(e,i))<0?-u:u;n=S(n,Math.floor(l/o)),r=S(r,Math.floor(l/a)),o=a=l}for(var f=[],s=0;s<o;s++)f.push(v(g(t,n[s],r[s]),6));return f}};function lt(t,n,r,e,i,u,o,a){return n=function(t,n,r){for(var e,i,u,o=t.length-1,a={},l=0;l<=o;l++)(e=t[l]).e&&(e.e=n(e.e)),e.v&&"g"===(i=e.v).t&&i.r&&(u=r.getElementById(i.r))&&(a[i.r]=u.querySelectorAll("stop"));return a}(t,e,a),function(e){var i,u=r(e,t,ft);return u?"c"===u.t?B(u.v):"g"===u.t?(n[u.r]&&function(t,n){for(var r=0,e=t.length;r<e;r++)t[r].setAttribute("stop-color",B(n[r]))}(n[u.r],u.v),(i=u.r)?"url(#"+i+")":"none"):"none":"none"}}function ft(t,n,r){if(0===t)return n;if(1===t)return r;if(n&&r){var e=n.t;if(e===r.t)switch(n.t){case"c":return{t:e,v:w(t,n.v,r.v)};case"g":if(n.r===r.r)return{t:e,v:A(t,n.v,r.v),r:n.r}}}return y(t,n,r)}var st={blur:p,brightness:g,contrast:g,"drop-shadow":function(t,n,r){return 0===t?n:1===t?r:{blur:p(t,n.blur,r.blur),offset:m(t,n.offset,r.offset),color:w(t,n.color,r.color)}},grayscale:g,"hue-rotate":d,invert:g,opacity:g,saturate:g,sepia:g};function ct(t,n,r){if(0===t)return n;if(1===t)return r;var e=n.length;if(e!==r.length)return y(t,n,r);for(var i,u=[],o=0;o<e;o++){if(n[o].type!==r[o].type)return n;if(!(i=st[n[o].type]))return y(t,n,r);u.push({type:n.type,value:i(t,n[o].value,r[o].value)})}return u}var vt={blur:function(t){return t?function(n){t.setAttribute("stdDeviation",F(n))}:null},brightness:function(t,n,r){return(t=yt(r,n))?function(n){n=I(n),t.map((function(t){return t.setAttribute("slope",n)}))}:null},contrast:function(t,n,r){return(t=yt(r,n))?function(n){var r=I((1-n)/2);n=I(n),t.map((function(t){t.setAttribute("slope",n),t.setAttribute("intercept",r)}))}:null},"drop-shadow":function(t,n,r){var e=r.getElementById(n+"-blur");if(!e)return null;var i=r.getElementById(n+"-offset");if(!i)return null;var u=r.getElementById(n+"-flood");return u?function(t){e.setAttribute("stdDeviation",F(t.blur)),i.setAttribute("dx",I(t.offset.x)),i.setAttribute("dy",I(t.offset.y)),u.setAttribute("flood-color",B(t.color))}:null},grayscale:function(t){return t?function(n){t.setAttribute("values",E(function(t){return[.2126+.7874*(t=1-t),.7152-.7152*t,.0722-.0722*t,0,0,.2126-.2126*t,.7152+.2848*t,.0722-.0722*t,0,0,.2126-.2126*t,.7152-.7152*t,.0722+.9278*t,0,0,0,0,0,1,0]}(n)))}:null},"hue-rotate":function(t){return t?function(n){return t.setAttribute("values",I(n))}:null},invert:function(t,n,r){return(t=yt(r,n))?function(n){n=I(n)+" "+I(1-n),t.map((function(t){return t.setAttribute("tableValues",n)}))}:null},opacity:function(t,n,r){return(t=r.getElementById(n+"-A"))?function(n){return t.setAttribute("tableValues","0 "+I(n))}:null},saturate:function(t){return t?function(n){return t.setAttribute("values",I(n))}:null},sepia:function(t){return t?function(n){return t.setAttribute("values",E(function(t){return[.393+.607*(t=1-t),.769-.769*t,.189-.189*t,0,0,.349-.349*t,.686+.314*t,.168-.168*t,0,0,.272-.272*t,.534-.534*t,.131+.869*t,0,0,0,0,0,1,0]}(n)))}:null}};var ht=["R","G","B"];function yt(t,n){var r=ht.map((function(r){return t.getElementById(n+"-"+r)||null}));return-1!==r.indexOf(null)?null:r}var dt={fill:lt,"fill-opacity":ot,stroke:lt,"stroke-opacity":ot,"stroke-width":ut,"stroke-dashoffset":{f:I,i:d},"stroke-dasharray":at,opacity:ot,transform:function(n,r,e,i){if(!(n=function(n,r){if(!n||"object"!==t(n))return null;var e=!1;for(var i in n)n.hasOwnProperty(i)&&(n[i]&&n[i].length?(n[i].forEach((function(t){t.e&&(t.e=r(t.e))})),e=!0):delete n[i]);return e?n:null}(n,i)))return null;var u=function(t,i,u){var o=arguments.length>3&&void 0!==arguments[3]?arguments[3]:null;return n[t]?e(i,n[t],u):r&&r[t]?r[t]:o};return r&&r.a&&n.o?function(t){var r=e(t,n.o,tt);return rt.recomposeSelf(r,u("r",t,d,0)+r.a,u("k",t,m),u("s",t,m),u("t",t,m)).toString()}:function(t){return rt.recomposeSelf(u("o",t,X,null),u("r",t,d,0),u("k",t,m),u("s",t,m),u("t",t,m)).toString()}},"#filter":function(t,n,r,e,i,u,o,a){if(!n.items||!t||!t.length)return null;var l=function(t,n){var r=(t=t.map((function(t){return t&&vt[t[0]]?(n.getElementById(t[1]),vt[t[0]](n.getElementById(t[1]),t[1],n)):null}))).length;return function(n){for(var e=0;e<r;e++)t[e]&&t[e](n[e].value)}}(n.items,a);return l?(t=function(t,n){return t.map((function(t){return t.e=n(t.e),t}))}(t,e),function(n){l(r(n,t,ct))}):null},"#line":it,points:{f:E,i:x},d:et,r:ut,"#size":q,"#radius":j,_:function(t,n){if(Array.isArray(t))for(var r=0;r<t.length;r++)this[t[r]]=n;else this[t]=n}},gt=function(){function t(r){n(this,t),this.list=r,this.length=r.length}return e(t,[{key:"setAttribute",value:function(t,n){for(var r=this.list,e=0;e<this.length;e++)r[e].setAttribute(t,n)}},{key:"removeAttribute",value:function(t){for(var n=this.list,r=0;r<this.length;r++)n[r].removeAttribute(t)}},{key:"style",value:function(t,n){for(var r=this.list,e=0;e<this.length;e++)r[e].style[t]=n}}]),t}(),mt=/-./g,pt=function(t,n){return n.toUpperCase()};function bt(t){return"function"==typeof t?t:y}function wt(t){return t?"function"==typeof t?t:Array.isArray(t)?function(t){var n=arguments.length>1&&void 0!==arguments[1]?arguments[1]:o;if(!Array.isArray(t))return n;switch(t.length){case 1:return c(t[0])||n;case 2:return c(t[0],t[1])||n;case 4:return l(t[0],t[1],t[2],t[3])||n}return n}(t,null):function(t,n){var r=arguments.length>2&&void 0!==arguments[2]?arguments[2]:o;switch(t){case"linear":return o;case"steps":return c(n.steps||1,n.jump||0)||r;case"bezier":case"cubic-bezier":return l(n.x1||0,n.y1||0,n.x2||0,n.y2||0)||r}return r}(t.type,t.value,null):null}function At(t,n,r){var e=arguments.length>3&&void 0!==arguments[3]&&arguments[3],i=n.length-1;if(t<=n[0].t)return e?[0,0,n[0].v]:n[0].v;if(t>=n[i].t)return e?[i,1,n[i].v]:n[i].v;var u,o=n[0],a=null;for(u=1;u<=i;u++){if(!(t>n[u].t)){a=n[u];break}o=n[u]}return null==a?e?[i,1,n[i].v]:n[i].v:o.t===a.t?e?[u,1,a.v]:a.v:(t=(t-o.t)/(a.t-o.t),o.e&&(t=o.e(t)),e?[u,t,r(t,o.v,a.v)]:r(t,o.v,a.v))}function xt(t,n){var r=arguments.length>2&&void 0!==arguments[2]?arguments[2]:null;return t&&t.length?"function"!=typeof n?null:("function"!=typeof r&&(r=null),function(e){var i=At(e,t,n);return null!=i&&r&&(i=r(i)),i}):null}function kt(t,n){return t.t-n.t}function St(n,r,e,i,u){var o,a="@"===e[0],l="#"===e[0],f=dt[e],s=y;switch(a?(o=e.substr(1),e=o.replace(mt,pt)):l&&(e=e.substr(1)),t(f)){case"function":if(s=f(i,u,At,wt,e,a,r,n),l)return s;break;case"string":s=xt(i,bt(f));break;case"object":if((s=xt(i,bt(f.i),f.f))&&"function"==typeof f.u)return f.u(r,s,e,a,n)}return s?function(t,n,r){if(arguments.length>3&&void 0!==arguments[3]&&arguments[3])return t instanceof gt?function(e){return t.style(n,r(e))}:function(e){return t.style[n]=r(e)};if(Array.isArray(n)){var e=n.length;return function(i){var u=r(i);if(null==u)for(var o=0;o<e;o++)t[o].removeAttribute(n);else for(var a=0;a<e;a++)t[a].setAttribute(n,u)}}return function(e){var i=r(e);null==i?t.removeAttribute(n):t.setAttribute(n,i)}}(r,e,s,a):null}function _t(n,r,e,i){if(!i||"object"!==t(i))return null;var u=null,o=null;return Array.isArray(i)?o=function(t){if(!t||!t.length)return null;for(var n=0;n<t.length;n++)t[n].e&&(t[n].e=wt(t[n].e));return t.sort(kt)}(i):(o=i.keys,u=i.data||null),o?St(n,r,e,o,u):null}function Mt(t,n,r){if(!r)return null;var e=[];for(var i in r)if(r.hasOwnProperty(i)){var u=_t(t,n,i,r[i]);u&&e.push(u)}return e.length?e:null}function It(t,n){if(!n.duration||n.duration<0)return null;var r=function(t,n){if(!n)return null;var r=[];if(Array.isArray(n))for(var e=n.length,i=0;i<e;i++){var u=n[i];if(2===u.length){var o=null;if("string"==typeof u[0])o=t.getElementById(u[0]);else if(Array.isArray(u[0])){o=[];for(var a=0;a<u[0].length;a++)if("string"==typeof u[0][a]){var l=t.getElementById(u[0][a]);l&&o.push(l)}o=o.length?1===o.length?o[0]:new gt(o):null}if(o){var f=Mt(t,o,u[1]);f&&(r=r.concat(f))}}}else for(var s in n)if(n.hasOwnProperty(s)){var c=t.getElementById(s);if(c){var v=Mt(t,c,n[s]);v&&(r=r.concat(v))}}return r.length?r:null}(t,n.elements);return r?function(t,n){var r=arguments.length>2&&void 0!==arguments[2]?arguments[2]:1/0,e=arguments.length>3&&void 0!==arguments[3]?arguments[3]:1,i=arguments.length>4&&void 0!==arguments[4]&&arguments[4],u=arguments.length>5&&void 0!==arguments[5]?arguments[5]:1,o=t.length,a=e>0?n:0;i&&r%2==0&&(a=n-a);var l=null;return function(f,s){var c=f%n,v=1+(f-c)/n;s*=e,i&&v%2==0&&(s=-s);var h=!1;if(v>r)c=a,h=!0,-1===u&&(c=e>0?0:n);else if(s<0&&(c=n-c),c===l)return!1;l=c;for(var y=0;y<o;y++)t[y](c);return h}}(r,n.duration,n.iterations||1/0,n.direction||1,!!n.alternate,n.fill||1):null}var Et=function(){function t(r){var e=arguments.length>1&&void 0!==arguments[1]?arguments[1]:{};n(this,t),this._id=0,this._running=!1,this._animations=r,this.direction=e.direction||1,this.speed=e.speed||1,this.fps=e.fps||100,this.offset=e.offset||0}return e(t,[{key:"_start",value:function(){var t=this,n=arguments.length>0&&void 0!==arguments[0]?arguments[0]:0,r=-1/0,e=null,i={},u=function u(o){t._running=!0,null==e&&(e=o);var a=Math.round((o-e+n)*t.speed),l=t.fps?1e3/t.fps:0;if(a>r+l){t.offset=a,r=a;for(var f=t._animations,s=f.length,c=0,v=0;v<s;v++)i[v]?c++:(i[v]=f[v](a,t.direction),i[v]&&c++);if(c===s)return void t._stop()}t._id=window.requestAnimationFrame(u)};this._id=window.requestAnimationFrame(u)}},{key:"_stop",value:function(){this._id&&window.cancelAnimationFrame(this._id),this._running=!1}},{key:"play",value:function(){this._running||this._start(this.offset)}},{key:"stop",value:function(){this._stop(),this.offset=0;var t=this.direction,n=this._animations;requestAnimationFrame((function(){for(var r=0;r<n.length;r++)n[r](0,t)}))}},{key:"restart",value:function(){this._stop(),this.offset=0,this._start()}},{key:"pause",value:function(){this._stop()}},{key:"reverse",value:function(){this.direction=-this.direction}}],[{key:"build",value:function(n){if(!(n=function(t){if(!t||!t.root||!Array.isArray(t.animations))return null;var n=window.document.getElementById(t.root);if(!n)return null;var r=t.animations.map((function(t){return It(n,t)})).filter((function(t){return!!t}));return r.length?{element:n,animations:r,options:t.options||void 0}:null}(n)))return null;var r=n.element,e=n.options||{},i=new t(n.animations,n.options);return function(t,n,r){var e=arguments.length>3&&void 0!==arguments[3]?arguments[3]:null;if("click"===r){return void n.addEventListener("click",(function r(){n.removeEventListener("click",r),t.play()}))}if("hover"===r)return n.addEventListener("mouseenter",(function(){return t.play()})),void n.addEventListener("mouseleave","freeze"===e?function(){return t.pause()}:function(){return t.stop()});t.play()}(i,r,e.start,e.hover),i}}]),t}();return function(){for(var t=0,n=["ms","moz","webkit","o"],r=0;r<n.length&&!window.requestAnimationFrame;++r)window.requestAnimationFrame=window[n[r]+"RequestAnimationFrame"],window.cancelAnimationFrame=window[n[r]+"CancelAnimationFrame"]||window[n[r]+"CancelRequestAnimationFrame"];window.requestAnimationFrame||(window.requestAnimationFrame=function(n){var r=Date.now(),e=Math.max(0,16-(r-t)),i=window.setTimeout((function(){n(r+e)}),e);return t=r+e,i},window.cancelAnimationFrame=window.clearTimeout)}(),Et}));
__SVGATOR_PLAYER__.build({"root":"epjsesor9s7i1","animations":[{"duration":13000,"direction":1,"iterations":1,"fill":1,"alternate":false,"elements":{"epjsesor9s7i2":{"fill":[{"t":0,"v":{"t":"c","v":{"r":244,"g":244,"b":244,"a":1}}},{"t":1000,"v":{"t":"c","v":{"r":253,"g":187,"b":74,"a":1}}},{"t":2000,"v":{"t":"c","v":{"r":163,"g":33,"b":4,"a":1}}}]},"epjsesor9s7i3":{"transform":{"data":{"t":{"x":9.094947017729282e-13,"y":0}},"keys":{"o":[{"t":0,"v":{"x":961.61,"y":1349.0499999950005,"type":"corner"}},{"t":2000,"v":{"x":959.9999999999998,"y":455.2300000000006,"type":"corner"}}]}}},"epjsesor9s7i4":{"transform":{"data":{"t":{"x":7198.39,"y":7200.576954180004}},"keys":{"o":[{"t":0,"v":{"x":-6237.89,"y":-5848.769999995007,"type":"corner"}},{"t":2000,"v":{"x":-6237.89,"y":-6745.346954180005,"type":"corner"}}]}},"fill-opacity":[{"t":0,"v":1},{"t":2000,"v":0}]},"epjsesor9s7i10":{"transform":{"data":{"t":{"x":6239.499999999999,"y":7539.500000005002}},"keys":{"o":[{"t":0,"v":{"x":-6239.999999999999,"y":-7539.499999995002,"type":"corner"}},{"t":400,"v":{"x":-6239.5999999999985,"y":-7119.499999995002,"type":"corner"}},{"t":800,"v":{"x":-6239.499999999999,"y":-6699.499999995002,"type":"corner"}}]}},"fill":[{"t":0,"v":{"t":"c","v":{"r":88,"g":38,"b":7,"a":1}}},{"t":2000,"v":{"t":"c","v":{"r":0,"g":0,"b":0,"a":1}}}]},"epjsesor9s7i11":{"fill-opacity":[{"t":11000,"v":0},{"t":12000,"v":0.35}]},"epjsesor9s7i12":{"fill-opacity":[{"t":12000,"v":0},{"t":13000,"v":1}]},"epjsesor9s7i13":{"transform":{"keys":{"o":[{"t":11000,"v":{"x":1002.3281250000005,"y":510.5346874950005,"type":"corner"}},{"t":12000,"v":{"x":680.0000000000006,"y":517.2892972250004,"type":"corner"}}]}},"fill":[{"t":11000,"v":{"t":"c","v":{"r":0,"g":0,"b":0,"a":1}}},{"t":12000,"v":{"t":"c","v":{"r":0,"g":0,"b":0,"a":1}}}],"fill-opacity":[{"t":7500,"v":0},{"t":8500,"v":1}]},"epjsesor9s7i14":{"transform":{"data":{"s":{"x":-1,"y":1}},"keys":{"o":[{"t":6400,"v":{"x":2633.380000004999,"y":499.88000000000113,"type":"corner"}},{"t":6500,"v":{"x":2635.3700000049994,"y":478.8389847300026,"type":"corner"}},{"t":7500,"v":{"x":2635.3700000049994,"y":115.83898473000261,"type":"corner"}}]}},"stroke-opacity":[{"t":0,"v":0},{"t":6200,"v":0},{"t":6300,"v":1},{"t":9000,"v":1},{"t":10000,"v":0}]},"epjsesor9s7i15":{"transform":{"keys":{"o":[{"t":2000,"v":{"x":-6884.880000000001,"y":-6611.495781955,"type":"corner"}},{"t":6000,"v":{"x":-5224.880000000001,"y":-6275.21796946,"type":"corner"}},{"t":6500,"v":{"x":-5224.880000000001,"y":-6275.22,"type":"corner"}},{"t":7500,"v":{"x":-5224.880000000001,"y":-6643.552734730001,"type":"corner"}}],"r":[{"t":2000,"v":0},{"t":6000,"v":0}]}},"fill":[{"t":6500,"v":{"t":"c","v":{"r":0,"g":0,"b":0,"a":1}}},{"t":7500,"v":{"t":"c","v":{"r":255,"g":192,"b":0,"a":1}}}],"fill-opacity":[{"t":8500,"v":1},{"t":10000,"v":0}],"stroke-opacity":[{"t":8500,"v":1},{"t":10000,"v":1}]},"epjsesor9s7i17":{"transform":{"keys":{"o":[{"t":11000,"v":{"x":1464.3906250000005,"y":513.3049222250006,"type":"corner"}},{"t":12000,"v":{"x":1124.4531250000005,"y":516.3908597250006,"type":"corner"}}]}},"fill-opacity":[{"t":10000,"v":0},{"t":11000,"v":1}],"stroke":[{"t":11000,"v":null},{"t":12000,"v":null}]},"epjsesor9s7i18":{"fill-opacity":[{"t":12000,"v":0},{"t":13000,"v":1}]}}}],"options":{"start":"load","hover":"restart"}})]]></script></svg>